<svg xmlns="http://www.w3.org/2000/svg" width="33" height="30" viewBox="0 0 33 30">
  <defs>
    <style>
      .cls-1 {
        fill: #d9c4a3;
        fill-rule: evenodd;
      }
    </style>
  </defs>
  <path id="Forma_1_копия" data-name="Forma 1 копия" class="cls-1" d="M1357.37,66a1.1,1.1,0,0,1-.8-0.292,1.07,1.07,0,0,1,0-1.531l27.61-27.849a1.044,1.044,0,0,1,1.52,0,1.07,1.07,0,0,1,0,1.531l-27.61,27.849A0.823,0.823,0,0,1,1357.37,66Zm9.54-9.623a1.1,1.1,0,0,1-.8-0.292,7.321,7.321,0,0,1-2.02-5.1,7.125,7.125,0,0,1,7.08-7.145,6.8,6.8,0,0,1,4.99,2.115,1.132,1.132,0,0,1,.29.8,1.578,1.578,0,0,1-.29.8l-8.46,8.53A1.073,1.073,0,0,1,1366.91,56.375Zm4.26-10.352a4.987,4.987,0,0,0-4.91,4.957,5.309,5.309,0,0,0,.72,2.624l6.79-6.853A5.351,5.351,0,0,0,1371.17,46.023Zm0,15.82h-0.22a1.094,1.094,0,0,1,0-2.187h0.15a6.073,6.073,0,0,0,1.15-.073,1.063,1.063,0,0,1,.22,2.114A7.888,7.888,0,0,1,1371.17,61.843Zm-5.85-1.312a0.935,0.935,0,0,1-.44-0.073c-0.43-.219-0.94-0.438-1.37-0.656a1.084,1.084,0,0,1-.43-1.458,1.067,1.067,0,0,1,1.44-.437,10.067,10.067,0,0,0,1.23.583,1.1,1.1,0,0,1,.58,1.458A1.079,1.079,0,0,1,1365.32,60.531Zm12.57-.438a1.068,1.068,0,0,1-.43-2.041c0.43-.219.79-0.438,1.23-0.656a1.142,1.142,0,0,1,1.51.365,1.167,1.167,0,0,1-.36,1.531,10.836,10.836,0,0,1-1.3.729C1378.25,60.02,1378.04,60.093,1377.89,60.093Zm5.93-4.228a1.173,1.173,0,0,1-.8-0.364,1.07,1.07,0,0,1,.07-1.531c0.37-.364.73-0.656,1.02-0.947a1.032,1.032,0,0,1,1.51,0,1.053,1.053,0,0,1,0,1.531c-0.36.364-.72,0.657-1.08,1.02A1.041,1.041,0,0,1,1383.82,55.865Zm-16.41,0a1.059,1.059,0,0,1-.79-1.822l1.01-1.021a1.044,1.044,0,0,1,1.52,0,1.07,1.07,0,0,1,0,1.531l-1.01,1.02A0.854,0.854,0,0,1,1367.41,55.865Zm5.13-5.176a1.074,1.074,0,0,1-.79-0.291,1.053,1.053,0,0,1,0-1.531l1.01-1.021a1.044,1.044,0,0,1,1.52,0,1.07,1.07,0,0,1,0,1.531l-1.01,1.021A0.943,0.943,0,0,1,1372.54,50.689Zm13.37-.219a1.149,1.149,0,0,1-.79-0.364c-0.29-.292-0.58-0.657-0.94-1.021a1.07,1.07,0,0,1,0-1.531,1.044,1.044,0,0,1,1.52,0,14.349,14.349,0,0,1,1.01,1.094,1.069,1.069,0,0,1-.07,1.531A0.942,0.942,0,0,1,1385.91,50.47Zm-5.42-4.812a0.8,0.8,0,0,1-.57-0.219c-0.37-.219-0.73-0.437-1.09-0.656l-0.43.437a1.044,1.044,0,0,1-1.52,0,1.07,1.07,0,0,1,0-1.531l1.01-1.021a1.044,1.044,0,0,1,1.52,0l0.07,0.073a0.716,0.716,0,0,1,.36.146c0.44,0.291.87,0.51,1.3,0.8a1.083,1.083,0,0,1,.29,1.531A1.154,1.154,0,0,1,1380.49,45.658Zm-16.84,14a1.306,1.306,0,0,1-.5-0.146,30.661,30.661,0,0,1-8.96-7.874,1.1,1.1,0,0,1,0-1.312c0.29-.438,7.66-10.134,16.98-10.134a17.168,17.168,0,0,1,8.02,2.26,1.123,1.123,0,0,1,.58.8,1.153,1.153,0,0,1-.29.948l-15.1,15.164A0.854,0.854,0,0,1,1363.65,59.656Zm-7.22-8.675a31.06,31.06,0,0,0,7.08,6.2l13.37-13.487a13.945,13.945,0,0,0-5.71-1.385C1364.23,42.378,1358.16,48.866,1356.43,50.981Z" transform="translate(-1354 -36)"/>
</svg>
