<svg xmlns="http://www.w3.org/2000/svg" width="20" height="20" viewBox="0 0 20 20">
  <defs>
    <style>
      .cls-1 {
        fill: #d9c4a3;
        fill-rule: evenodd;
      }
    </style>
  </defs>
  <path id="Фигура_9" data-name="Фигура 9" class="cls-1" d="M559,41.8c2.67,0,2.986.01,4.041,0.058a5.539,5.539,0,0,1,1.857.344,3.311,3.311,0,0,1,1.9,1.9,5.548,5.548,0,0,1,.344,1.857c0.048,1.054.058,1.371,0.058,4.041s-0.01,2.986-.058,4.041A5.549,5.549,0,0,1,566.8,55.9a3.311,3.311,0,0,1-1.9,1.9,5.537,5.537,0,0,1-1.857.344c-1.054.048-1.371,0.058-4.041,0.058s-2.986-.01-4.041-0.058A5.537,5.537,0,0,1,553.1,57.8a3.311,3.311,0,0,1-1.9-1.9,5.575,5.575,0,0,1-.344-1.857C550.812,52.986,550.8,52.67,550.8,50s0.01-2.986.058-4.041A5.574,5.574,0,0,1,551.2,44.1a3.311,3.311,0,0,1,1.9-1.9,5.539,5.539,0,0,1,1.857-.344c1.055-.048,1.371-0.058,4.041-0.058m0-1.8c-2.716,0-3.056.011-4.123,0.06a7.342,7.342,0,0,0-2.427.465,5.109,5.109,0,0,0-2.925,2.925,7.356,7.356,0,0,0-.465,2.427C549.011,46.944,549,47.284,549,50s0.011,3.056.06,4.123a7.356,7.356,0,0,0,.465,2.427,5.109,5.109,0,0,0,2.925,2.925,7.342,7.342,0,0,0,2.427.465c1.067,0.049,1.407.06,4.123,0.06s3.056-.011,4.123-0.06a7.342,7.342,0,0,0,2.427-.465,5.109,5.109,0,0,0,2.925-2.925,7.356,7.356,0,0,0,.465-2.427c0.049-1.067.06-1.407,0.06-4.123s-0.011-3.056-.06-4.123a7.356,7.356,0,0,0-.465-2.427,5.109,5.109,0,0,0-2.925-2.925,7.342,7.342,0,0,0-2.427-.465C562.056,40.011,561.716,40,559,40m0,4.865A5.135,5.135,0,1,0,564.135,50,5.135,5.135,0,0,0,559,44.865m0,8.468A3.333,3.333,0,1,1,562.333,50,3.333,3.333,0,0,1,559,53.333m6.538-8.671a1.2,1.2,0,1,1-1.2-1.2,1.2,1.2,0,0,1,1.2,1.2" transform="translate(-549 -40)"/>
</svg>
