<svg xmlns="http://www.w3.org/2000/svg" width="24" height="20" viewBox="0 0 24 20">
  <defs>
    <style>
      .cls-1 {
        fill: #d9c4a3;
        fill-rule: evenodd;
      }
    </style>
  </defs>
  <path id="Фигура_11" data-name="Фигура 11" class="cls-1" d="M529.141,60l-0.3,0h0a13.41,13.41,0,0,1-7.446-2.209,0.9,0.9,0,0,1-.346-1.069,0.888,0.888,0,0,1,.966-0.562,6.1,6.1,0,0,0,.95.066,8.05,8.05,0,0,0,3.406-.714,5.54,5.54,0,0,1-.922-0.558,5.39,5.39,0,0,1-1.935-2.711,0.9,0.9,0,0,1,.142-0.823,5.72,5.72,0,0,1-.536-0.565,5.347,5.347,0,0,1-1.244-3.505,0.94,0.94,0,0,1,.436-0.794,1.037,1.037,0,0,1,.15-0.073,5.486,5.486,0,0,1,.2-5.2,0.887,0.887,0,0,1,.695-0.433,0.9,0.9,0,0,1,.752.325,12.366,12.366,0,0,0,3.873,3.166,11.418,11.418,0,0,0,3.842,1.21c0-.02,0-0.041,0-0.062a5.27,5.27,0,0,1,1.606-3.876,5.38,5.38,0,0,1,3.822-1.606,5.221,5.221,0,0,1,3.629,1.368,7.951,7.951,0,0,0,2.149-.908,0.881,0.881,0,0,1,1,.061,0.9,0.9,0,0,1,.3.969,5.727,5.727,0,0,1-.259.679,0.887,0.887,0,0,1,.732.327,0.9,0.9,0,0,1,.045,1.069,10.735,10.735,0,0,1-2.122,2.306v0.147a14.213,14.213,0,0,1-.567,3.947,14.621,14.621,0,0,1-1.724,3.777,13.923,13.923,0,0,1-2.785,3.187,13.6,13.6,0,0,1-3.895,2.24A12.811,12.811,0,0,1,529.141,60Zm-3.725-2.282a11.957,11.957,0,0,0,3.443.494,11.145,11.145,0,0,0,4.264-.707,11.86,11.86,0,0,0,3.392-1.943,12.106,12.106,0,0,0,2.428-2.78,12.857,12.857,0,0,0,1.515-3.312,12.409,12.409,0,0,0,.5-3.447V45.437a0.9,0.9,0,0,1,.361-0.719l0.069-.052a0.886,0.886,0,0,1-.736-0.6,0.9,0.9,0,0,1,.145-0.847l-0.022,0a0.881,0.881,0,0,1-.819-0.268,3.485,3.485,0,0,0-2.692-1.169,3.617,3.617,0,0,0-2.594,1.1,3.489,3.489,0,0,0-1.074,2.6,3.614,3.614,0,0,0,.1.837,0.891,0.891,0,0,1-.9,1.1,13.312,13.312,0,0,1-5.632-1.5,14.143,14.143,0,0,1-3.434-2.519,3.633,3.633,0,0,0-.054.631,3.54,3.54,0,0,0,.443,1.779,3.822,3.822,0,0,0,1.216,1.331,0.894,0.894,0,0,1-.535,1.632,5.677,5.677,0,0,1-.927-0.119,3.475,3.475,0,0,0,.609,1.051,3.628,3.628,0,0,0,2.131,1.28,0.894,0.894,0,0,1,.035,1.74,5.993,5.993,0,0,1-.815.146,3.646,3.646,0,0,0,.672.642,3.708,3.708,0,0,0,2.159.743,0.887,0.887,0,0,1,.813.615,0.9,0.9,0,0,1-.295.979A9.782,9.782,0,0,1,525.416,57.719Z" transform="translate(-521 -40)"/>
</svg>
