<svg xmlns="http://www.w3.org/2000/svg" width="29.813" height="17.969" viewBox="0 0 29.813 17.969">
  <defs>
    <style>
      .cls-1 {
        fill: #d9c4a3;
        fill-rule: evenodd;
      }
    </style>
  </defs>
  <path id="Фигура_12" data-name="Фигура 12" class="cls-1" d="M378.629,58.995a3.234,3.234,0,0,1-.867-0.129,3.763,3.763,0,0,1-1.022-.434l-0.286-.183a7.521,7.521,0,0,1-1.212-1.108q-0.587-.643-1.013-1.154a4.1,4.1,0,0,0-.691-0.658,0.445,0.445,0,0,0-.04.07,2.252,2.252,0,0,0-.151.515,4.738,4.738,0,0,0-.082.942,2.437,2.437,0,0,1-.09.668,1.883,1.883,0,0,1-.234.543c-0.028.041-.11,0.159-0.143,0.2a2.043,2.043,0,0,1-1.466.64l-1.712,0a6.7,6.7,0,0,1-2.383-.276,11.778,11.778,0,0,1-2.1-.828,9.072,9.072,0,0,1-1.661-1.088c-0.4-.333-0.732-0.6-1-0.8a0.972,0.972,0,0,1-.105-0.092l-0.776-.807c-0.133-.147-0.382-0.441-1.109-1.416-0.53-.71-1.057-1.465-1.566-2.242S357.8,49.5,357.11,48.184s-1.333-2.665-1.927-4.035A1.958,1.958,0,0,1,355,43.356a1.408,1.408,0,0,1,.221-0.794c0.018-.026.089-0.13,0.109-0.155a1.953,1.953,0,0,1,1.6-.655l3.964-.026a0.927,0.927,0,0,1,.15.01,2.091,2.091,0,0,1,.642.2c0.045,0.023.084,0.042,0.114,0.053a1.423,1.423,0,0,1,.223.111,1.952,1.952,0,0,1,.811,1.041c0.162,0.41.377,0.892,0.62,1.382l0.808,1.549a14.557,14.557,0,0,0,.781,1.475,7.5,7.5,0,0,0,.612.87c0.058,0.069.115,0.131,0.17,0.187a0.174,0.174,0,0,0,0-.023l0.129-1.185a9.455,9.455,0,0,0,0-1.616,5.414,5.414,0,0,0-.11-0.929c-0.041-.189-0.077-0.34-0.11-0.45l-0.031-.047a1.054,1.054,0,0,0-.539-0.19,1.136,1.136,0,0,1-.89-0.768,1.285,1.285,0,0,1,.382-1.269,3.261,3.261,0,0,1,.777-0.632c0.518-.255,1.369-0.494,3.965-0.477a11.989,11.989,0,0,1,2.139.2,2.461,2.461,0,0,1,.871.375,2.2,2.2,0,0,1,.577.623,1.878,1.878,0,0,1,.282,1,4.758,4.758,0,0,0,.044.552,3.979,3.979,0,0,1,0,1.052,6.817,6.817,0,0,0-.042.9l-0.027,1.845a3.9,3.9,0,0,0,0,.559l0.026,0.29a9.824,9.824,0,0,0,.626-0.838c0.294-.428.613-0.933,0.947-1.5a26.1,26.1,0,0,0,1.491-3.129,1.755,1.755,0,0,1,.256-0.487,1.726,1.726,0,0,1,.336-0.345,1.222,1.222,0,0,1,.409-0.232l0.285-.078a1.589,1.589,0,0,1,.687-0.036l3.946-.025a3.18,3.18,0,0,1,1.274.064,1.713,1.713,0,0,1,.988.65l0.065,0.08a1.011,1.011,0,0,1,.159.287c0.271,0.754.177,1.91-2.323,5.229-0.216.3-.533,0.726-0.938,1.258a9.755,9.755,0,0,0-1.151,1.635l-0.037.1a0.375,0.375,0,0,0,.069.118c0.058,0.069.3,0.331,1.013,1.012a1.033,1.033,0,0,1,.2.189,15.117,15.117,0,0,1,2.894,3.387l0.1,0.176a2.07,2.07,0,0,1,.2.8,3.33,3.33,0,0,1,0,.709,1.516,1.516,0,0,1-.881,1.153,2.774,2.774,0,0,1-1.329.3l-3.636.077A2.4,2.4,0,0,1,378.629,58.995Zm-5.175-5.754a2.1,2.1,0,0,1,1.24.449,6.045,6.045,0,0,1,1.061,1q0.4,0.483.959,1.091a5.7,5.7,0,0,0,.852.8l0.246,0.157a1.841,1.841,0,0,0,.485.193,0.967,0.967,0,0,0,.386.053,1.04,1.04,0,0,1,.129-0.011l3.712-.078a1.588,1.588,0,0,0,.242-0.016c0-.018,0-0.035,0-0.05l-0.045-.076a13.745,13.745,0,0,0-2.588-2.972,0.779,0.779,0,0,1-.057-0.058h0a16.42,16.42,0,0,1-1.276-1.288,2.116,2.116,0,0,1-.33-2.218,9.142,9.142,0,0,1,1.428-2.126c0.383-.5.689-0.913,0.91-1.221a13.435,13.435,0,0,0,1.96-3.139,2.071,2.071,0,0,0-.316.023,1.02,1.02,0,0,1-.128.009l-4.152.026h-0.032a26.545,26.545,0,0,1-1.573,3.305q-0.548.939-1.033,1.641a10.723,10.723,0,0,1-.836,1.1,4.444,4.444,0,0,1-.71.641,1.535,1.535,0,0,1-1.16.317l-0.25-.055a1.009,1.009,0,0,1-.232-0.082,1.787,1.787,0,0,1-.784-0.816,2.577,2.577,0,0,1-.257-0.94l-0.051-.566a5.563,5.563,0,0,1,0-.855l0.025-.584V45.732a8.724,8.724,0,0,1,.062-1.188,1.972,1.972,0,0,0,0-.515,6.5,6.5,0,0,1-.06-0.8,0.737,0.737,0,0,1-.177-0.044,10.336,10.336,0,0,0-1.728-.153,18.718,18.718,0,0,0-2.112.069c0.029,0.034.056,0.07,0.082,0.105l0.133,0.2a1.045,1.045,0,0,1,.1.205,6.641,6.641,0,0,1,.22.812,7.237,7.237,0,0,1,.153,1.244,11.329,11.329,0,0,1,0,1.945l-0.131,1.21a3.1,3.1,0,0,1-.281,1.019,2.059,2.059,0,0,1-.369.574l-0.077.078a1,1,0,0,1-.315.214,1.8,1.8,0,0,1-1.861-.242,4.509,4.509,0,0,1-.768-0.734,9.121,9.121,0,0,1-.788-1.112,15.517,15.517,0,0,1-.862-1.62l-0.2-.352-0.616-1.21c-0.275-.552-0.514-1.088-0.715-1.6l0.008-.013c-0.051-.023-0.108-0.049-0.17-0.081l-3.619.024c0.54,1.18,1.106,2.354,1.7,3.489,0.658,1.255,1.235,2.264,1.715,3s0.99,1.464,1.5,2.142c0.622,0.835.874,1.144,0.977,1.257l0.671,0.7q0.415,0.317,1.021.824a7.1,7.1,0,0,0,1.3.846,9.824,9.824,0,0,0,1.743.685,4.9,4.9,0,0,0,1.748.2l1.721,0c0-.014,0-0.027,0-0.04a6.7,6.7,0,0,1,.125-1.356,4.217,4.217,0,0,1,.318-1,2.318,2.318,0,0,1,.555-0.731,4.372,4.372,0,0,1,.347-0.277,1.3,1.3,0,0,1,.442-0.2A1.609,1.609,0,0,1,373.454,53.241Z" transform="translate(-355 -41.031)"/>
</svg>
